<svg width="1416" height="1617" viewBox="0 0 1416 1617" fill="none" xmlns="http://www.w3.org/2000/svg">
<g filter="url(#filter0_f_106_13)">
<ellipse cx="463.338" cy="461.248" rx="263.833" ry="260.34" transform="rotate(-24.6348 463.338 461.248)" fill="white" fill-opacity="0.1"/>
</g>
<g filter="url(#filter1_f_106_13)">
<ellipse cx="789.707" cy="993.582" rx="326.22" ry="321.901" transform="rotate(-24.6348 789.707 993.582)" fill="black" fill-opacity="0.7"/>
</g>
<g filter="url(#filter2_ddii_106_13)">
<circle cx="627.5" cy="759.13" r="391.5" fill="#272727"/>
</g>
<g filter="url(#filter3_i_106_13)">
<circle cx="627.5" cy="764.13" r="252.5" fill="#272727"/>
</g>
<g filter="url(#filter4_di_106_13)">
<circle cx="627.499" cy="764.492" r="167.5" fill="#47515C"/>
<circle cx="627.499" cy="764.492" r="160" stroke="url(#paint0_linear_106_13)" stroke-width="15"/>
</g>
<path d="M731.028 703.11C722.868 703.11 716.052 709.83 716.052 718.086C716.052 726.438 722.868 733.158 731.028 733.158C739.38 733.158 746.1 726.438 746.1 718.086C746.1 709.83 739.38 703.11 731.028 703.11ZM731.028 727.398C726.036 727.398 721.812 723.27 721.812 718.086C721.812 712.998 726.036 708.87 731.028 708.87C736.212 708.87 740.34 712.998 740.34 718.086C740.34 723.27 736.212 727.398 731.028 727.398Z" fill="white"/>
<path d="M620.694 474.3C618.729 474.3 617.043 473.803 615.635 472.809C614.235 471.806 613.157 470.363 612.402 468.478C611.654 466.584 611.28 464.305 611.28 461.641C611.288 458.976 611.666 456.709 612.413 454.839C613.169 452.962 614.247 451.53 615.647 450.544C617.055 449.558 618.737 449.064 620.694 449.064C622.651 449.064 624.333 449.558 625.741 450.544C627.149 451.53 628.227 452.962 628.975 454.839C629.731 456.717 630.108 458.984 630.108 461.641C630.108 464.313 629.731 466.596 628.975 468.489C628.227 470.375 627.149 471.814 625.741 472.809C624.341 473.803 622.659 474.3 620.694 474.3ZM620.694 470.566C622.221 470.566 623.427 469.814 624.309 468.31C625.2 466.799 625.646 464.576 625.646 461.641C625.646 459.7 625.443 458.069 625.037 456.749C624.632 455.428 624.059 454.434 623.319 453.766C622.579 453.089 621.704 452.751 620.694 452.751C619.175 452.751 617.974 453.507 617.091 455.018C616.208 456.522 615.762 458.729 615.754 461.641C615.746 463.589 615.941 465.228 616.339 466.556C616.745 467.885 617.317 468.887 618.057 469.563C618.797 470.231 619.676 470.566 620.694 470.566ZM639.394 465.603C636.538 465.603 634.152 467.955 634.152 470.844C634.152 473.768 636.538 476.12 639.394 476.12C642.317 476.12 644.669 473.768 644.669 470.844C644.669 467.955 642.317 465.603 639.394 465.603ZM639.394 474.104C637.647 474.104 636.168 472.659 636.168 470.844C636.168 469.064 637.647 467.619 639.394 467.619C641.208 467.619 642.653 469.064 642.653 470.844C642.653 472.659 641.208 474.104 639.394 474.104Z" fill="white"/>
<path opacity="0.5" d="M459.587 519.532C458.421 520.205 457.264 520.606 456.115 520.733C454.972 520.857 453.929 520.717 452.986 520.311C452.044 519.896 451.281 519.227 450.696 518.305L453.361 516.766C453.692 517.262 454.123 517.609 454.653 517.809C455.186 517.999 455.765 518.049 456.392 517.959C457.019 517.869 457.644 517.644 458.266 517.284C458.951 516.889 459.488 516.421 459.877 515.879C460.272 515.334 460.497 514.763 460.551 514.166C460.603 513.562 460.467 512.981 460.144 512.421C459.807 511.838 459.362 511.412 458.807 511.144C458.254 510.867 457.619 510.766 456.9 510.841C456.188 510.913 455.429 511.181 454.626 511.645L453.157 512.493L451.922 510.354L453.391 509.506C454.036 509.134 454.535 508.691 454.888 508.178C455.246 507.662 455.444 507.117 455.483 506.544C455.519 505.965 455.375 505.396 455.051 504.835C454.741 504.298 454.35 503.901 453.878 503.646C453.408 503.381 452.887 503.263 452.315 503.291C451.749 503.317 451.169 503.501 450.574 503.844C450.009 504.171 449.54 504.581 449.168 505.074C448.799 505.559 448.573 506.082 448.49 506.643C448.403 507.199 448.502 507.749 448.787 508.294L446.249 509.759C445.735 508.804 445.535 507.817 445.649 506.8C445.77 505.78 446.15 504.818 446.789 503.913C447.429 503.008 448.28 502.249 449.344 501.634C450.459 500.991 451.547 500.653 452.607 500.622C453.67 500.581 454.63 500.793 455.486 501.257C456.348 501.717 457.023 502.377 457.511 503.234C458.078 504.204 458.284 505.187 458.127 506.183C457.976 507.176 457.515 508.05 456.743 508.804L456.821 508.94C458.077 508.449 459.236 508.391 460.298 508.767C461.365 509.139 462.213 509.875 462.841 510.976C463.399 511.929 463.628 512.94 463.528 514.009C463.434 515.074 463.051 516.091 462.381 517.059C461.706 518.022 460.775 518.846 459.587 519.532ZM475.71 510.224C474.544 510.897 473.387 511.297 472.238 511.425C471.095 511.549 470.052 511.408 469.108 511.002C468.167 510.587 467.404 509.919 466.819 508.997L469.484 507.458C469.815 507.953 470.246 508.301 470.776 508.5C471.309 508.691 471.888 508.741 472.515 508.65C473.142 508.56 473.767 508.335 474.389 507.976C475.074 507.581 475.611 507.112 476 506.571C476.395 506.026 476.619 505.455 476.674 504.857C476.726 504.254 476.59 503.672 476.267 503.112C475.93 502.529 475.484 502.104 474.93 501.835C474.377 501.558 473.742 501.457 473.023 501.533C472.31 501.605 471.552 501.873 470.749 502.337L469.28 503.184L468.045 501.045L469.514 500.198C470.159 499.825 470.658 499.383 471.01 498.87C471.369 498.353 471.567 497.809 471.606 497.235C471.642 496.657 471.498 496.087 471.174 495.527C470.864 494.989 470.473 494.593 470.001 494.337C469.531 494.073 469.01 493.954 468.438 493.983C467.872 494.008 467.291 494.192 466.697 494.535C466.131 494.862 465.663 495.272 465.291 495.766C464.922 496.25 464.696 496.773 464.613 497.335C464.526 497.89 464.625 498.44 464.909 498.985L462.371 500.451C461.857 499.495 461.658 498.509 461.772 497.492C461.893 496.472 462.272 495.509 462.912 494.604C463.551 493.7 464.403 492.94 465.467 492.326C466.582 491.682 467.669 491.345 468.73 491.313C469.793 491.273 470.753 491.485 471.609 491.948C472.471 492.409 473.146 493.068 473.634 493.926C474.201 494.896 474.407 495.879 474.25 496.875C474.099 497.867 473.637 498.741 472.866 499.496L472.944 499.632C474.2 499.141 475.359 499.083 476.42 499.458C477.488 499.83 478.336 500.567 478.964 501.668C479.522 502.621 479.751 503.632 479.651 504.7C479.557 505.766 479.174 506.783 478.503 507.751C477.829 508.713 476.898 509.538 475.71 510.224ZM491.862 500.966C490.518 501.735 489.168 502.043 487.812 501.89C486.456 501.737 485.139 501.136 483.861 500.085C482.583 499.035 481.399 497.565 480.308 495.675C479.22 493.79 478.542 492.035 478.275 490.409C478.013 488.779 478.155 487.339 478.7 486.089C479.252 484.835 480.192 483.824 481.522 483.056C482.852 482.289 484.196 481.984 485.555 482.143C486.911 482.295 488.226 482.894 489.501 483.939C490.778 484.975 491.96 486.435 493.048 488.319C494.143 490.215 494.825 491.978 495.096 493.61C495.363 495.236 495.226 496.678 494.684 497.934C494.138 499.184 493.197 500.195 491.862 500.966ZM490.554 498.7C491.731 498.02 492.319 496.915 492.317 495.384C492.322 493.85 491.697 491.996 490.442 489.823C489.609 488.38 488.752 487.249 487.872 486.43C486.994 485.601 486.123 485.093 485.26 484.905C484.399 484.708 483.581 484.833 482.806 485.28C481.634 485.957 481.048 487.065 481.047 488.605C481.046 490.144 481.668 492 482.913 494.17C483.75 495.619 484.607 496.757 485.485 497.586C486.366 498.405 487.235 498.911 488.092 499.102C488.947 499.288 489.767 499.154 490.554 498.7ZM501.35 487.296C499.318 488.469 498.587 491.122 499.774 493.177C500.974 495.257 503.637 495.95 505.669 494.777C507.749 493.577 508.456 490.937 507.255 488.858C506.068 486.802 503.429 486.095 501.35 487.296ZM504.841 493.343C503.598 494.061 501.953 493.64 501.208 492.349C500.476 491.082 500.935 489.447 502.178 488.73C503.468 487.985 505.09 488.419 505.821 489.686C506.566 490.977 506.132 492.598 504.841 493.343Z" fill="white"/>
<path opacity="0.5" d="M769.147 501.593C767.981 500.92 767.056 500.118 766.371 499.187C765.692 498.259 765.292 497.285 765.172 496.265C765.061 495.242 765.258 494.247 765.764 493.279L768.429 494.818C768.166 495.353 768.08 495.899 768.173 496.458C768.274 497.015 768.52 497.542 768.912 498.039C769.304 498.537 769.811 498.966 770.433 499.325C771.118 499.72 771.792 499.951 772.456 500.017C773.125 500.087 773.732 499.996 774.277 499.745C774.825 499.488 775.261 499.079 775.584 498.519C775.921 497.936 776.066 497.337 776.021 496.723C775.985 496.106 775.755 495.505 775.33 494.921C774.911 494.339 774.3 493.817 773.497 493.353L772.028 492.505L773.263 490.366L774.732 491.214C775.377 491.586 776.01 491.797 776.63 491.846C777.256 491.898 777.827 491.798 778.343 491.545C778.862 491.286 779.283 490.877 779.607 490.316C779.917 489.779 780.065 489.242 780.05 488.705C780.045 488.166 779.887 487.656 779.576 487.175C779.271 486.697 778.821 486.286 778.227 485.943C777.661 485.617 777.072 485.416 776.459 485.341C775.854 485.264 775.288 485.329 774.761 485.538C774.236 485.74 773.809 486.101 773.479 486.62L770.941 485.155C771.512 484.232 772.266 483.566 773.204 483.157C774.148 482.751 775.171 482.598 776.275 482.7C777.378 482.801 778.462 483.159 779.525 483.773C780.64 484.417 781.476 485.19 782.034 486.093C782.601 486.993 782.897 487.93 782.923 488.904C782.956 489.881 782.722 490.795 782.223 491.646C781.667 492.622 780.918 493.292 779.977 493.654C779.042 494.019 778.055 494.057 777.015 493.766L776.937 493.902C777.99 494.744 778.62 495.718 778.825 496.825C779.037 497.936 778.823 499.038 778.183 500.133C777.637 501.092 776.876 501.796 775.901 502.244C774.931 502.695 773.859 502.872 772.685 502.776C771.515 502.673 770.335 502.279 769.147 501.593ZM785.24 510.952C783.902 510.172 782.961 509.157 782.415 507.906C781.869 506.656 781.732 505.215 782.003 503.583C782.273 501.951 782.954 500.19 784.046 498.3C785.133 496.416 786.315 494.951 787.589 493.906C788.87 492.865 790.188 492.268 791.543 492.115C792.905 491.966 794.251 492.275 795.58 493.042C796.91 493.81 797.846 494.822 798.388 496.078C798.934 497.329 799.073 498.767 798.806 500.393C798.547 502.017 797.874 503.771 796.786 505.656C795.692 507.551 794.505 509.024 793.227 510.075C791.953 511.119 790.636 511.721 789.277 511.879C787.921 512.032 786.576 511.723 785.24 510.952ZM786.549 508.686C787.726 509.365 788.977 509.322 790.302 508.555C791.633 507.792 792.926 506.324 794.18 504.151C795.013 502.708 795.565 501.401 795.834 500.228C796.112 499.054 796.117 498.045 795.849 497.204C795.589 496.36 795.072 495.714 794.296 495.266C793.125 494.59 791.872 494.636 790.538 495.405C789.204 496.174 787.908 497.64 786.651 499.804C785.815 501.253 785.258 502.565 784.979 503.739C784.71 504.912 784.707 505.917 784.969 506.756C785.236 507.588 785.762 508.232 786.549 508.686ZM801.823 512.333C799.791 511.16 797.128 511.854 795.941 513.909C794.741 515.989 795.472 518.642 797.504 519.815C799.583 521.015 802.222 520.308 803.423 518.229C804.61 516.173 803.902 513.534 801.823 512.333ZM798.332 518.381C797.089 517.663 796.63 516.028 797.376 514.737C798.107 513.471 799.752 513.05 800.995 513.768C802.286 514.513 802.72 516.134 801.989 517.401C801.243 518.691 799.622 519.126 798.332 518.381Z" fill="white"/>
<path opacity="0.5" d="M874.71 603.299C874.274 602.517 873.974 601.671 873.811 600.762C873.652 599.858 873.712 598.918 873.993 597.941C874.274 596.964 874.843 595.983 875.7 594.997C876.561 594.018 877.792 593.066 879.393 592.141C880.91 591.265 882.343 590.638 883.693 590.258C885.046 589.884 886.293 589.749 887.432 589.854C888.577 589.955 889.595 590.287 890.487 590.852C891.378 591.416 892.115 592.201 892.696 593.209C893.294 594.244 893.621 595.281 893.678 596.32C893.734 597.359 893.547 598.335 893.116 599.248C892.688 600.166 892.055 600.958 891.216 601.623L889.722 599.034C890.345 598.441 890.735 597.751 890.893 596.966C891.051 596.181 890.888 595.369 890.404 594.532C889.669 593.259 888.541 592.586 887.021 592.513C885.503 592.446 883.755 592.98 881.777 594.114L881.851 594.242C882.516 594.257 883.147 594.383 883.744 594.62C884.35 594.859 884.903 595.196 885.403 595.631C885.912 596.069 886.342 596.591 886.691 597.196C887.273 598.203 887.553 599.257 887.531 600.356C887.518 601.457 887.222 602.499 886.643 603.483C886.064 604.466 885.22 605.278 884.11 605.918C883.001 606.558 881.852 606.887 880.661 606.902C879.474 606.924 878.356 606.634 877.307 606.032C876.263 605.427 875.398 604.516 874.71 603.299ZM876.912 602.016C877.297 602.684 877.806 603.186 878.438 603.523C879.07 603.86 879.752 604.021 880.483 604.006C881.214 603.992 881.922 603.787 882.606 603.391C883.274 603.006 883.796 602.505 884.172 601.888C884.551 601.277 884.751 600.618 884.773 599.911C884.798 599.21 884.62 598.528 884.237 597.866C883.947 597.362 883.581 596.951 883.14 596.632C882.703 596.319 882.221 596.099 881.696 595.972C881.17 595.846 880.632 595.817 880.083 595.885C879.543 595.955 879.029 596.131 878.543 596.412C877.892 596.788 877.376 597.285 876.995 597.906C876.616 598.531 876.41 599.205 876.374 599.928C876.347 600.652 876.526 601.348 876.912 602.016ZM883.836 619.224C883.068 617.88 882.76 616.53 882.913 615.174C883.066 613.818 883.667 612.501 884.717 611.223C885.768 609.945 887.238 608.761 889.128 607.67C891.012 606.582 892.768 605.904 894.394 605.637C896.023 605.375 897.463 605.517 898.714 606.062C899.968 606.614 900.978 607.554 901.746 608.884C902.514 610.214 902.819 611.558 902.66 612.917C902.507 614.273 901.909 615.588 900.864 616.863C899.828 618.14 898.368 619.322 896.484 620.41C894.588 621.505 892.824 622.187 891.192 622.458C889.566 622.725 888.125 622.588 886.869 622.045C885.618 621.5 884.608 620.559 883.836 619.224ZM886.103 617.916C886.782 619.093 887.888 619.68 889.419 619.679C890.953 619.684 892.806 619.059 894.979 617.804C896.422 616.971 897.553 616.114 898.373 615.234C899.201 614.356 899.71 613.485 899.898 612.622C900.095 611.761 899.97 610.943 899.522 610.168C898.846 608.996 897.738 608.41 896.198 608.409C894.658 608.408 892.803 609.03 890.632 610.275C889.184 611.112 888.045 611.969 887.217 612.847C886.397 613.728 885.892 614.597 885.7 615.454C885.515 616.309 885.649 617.129 886.103 617.916ZM897.507 628.712C896.334 626.68 893.681 625.949 891.625 627.136C889.546 628.336 888.853 630.999 890.026 633.031C891.226 635.111 893.865 635.818 895.945 634.617C898 633.43 898.708 630.791 897.507 628.712ZM891.46 632.203C890.742 630.96 891.163 629.315 892.453 628.57C893.72 627.838 895.355 628.297 896.073 629.54C896.818 630.83 896.384 632.452 895.117 633.183C893.826 633.928 892.205 633.494 891.46 632.203Z" fill="white"/>
<path opacity="0.5" d="M360.935 632.212C360.262 633.378 359.46 634.303 358.529 634.988C357.601 635.667 356.628 636.066 355.607 636.187C354.585 636.298 353.59 636.101 352.622 635.595L354.161 632.929C354.695 633.193 355.242 633.278 355.801 633.186C356.357 633.085 356.884 632.838 357.382 632.447C357.88 632.055 358.308 631.548 358.668 630.925C359.063 630.241 359.294 629.567 359.36 628.903C359.429 628.234 359.338 627.627 359.087 627.082C358.83 626.534 358.422 626.098 357.861 625.775C357.279 625.438 356.68 625.292 356.065 625.337C355.449 625.374 354.848 625.604 354.263 626.028C353.682 626.447 353.159 627.058 352.695 627.862L351.847 629.33L349.708 628.095L350.556 626.627C350.929 625.982 351.139 625.349 351.188 624.728C351.241 624.102 351.14 623.531 350.887 623.015C350.629 622.496 350.219 622.075 349.659 621.752C349.121 621.441 348.584 621.293 348.048 621.308C347.509 621.314 346.999 621.472 346.517 621.783C346.039 622.088 345.629 622.537 345.286 623.132C344.959 623.697 344.758 624.287 344.684 624.9C344.606 625.504 344.672 626.07 344.88 626.598C345.083 627.123 345.444 627.55 345.963 627.879L344.497 630.417C343.574 629.847 342.908 629.092 342.499 628.155C342.093 627.211 341.941 626.187 342.042 625.084C342.144 623.981 342.501 622.897 343.116 621.833C343.759 620.718 344.533 619.882 345.435 619.325C346.336 618.758 347.273 618.462 348.246 618.435C349.223 618.403 350.137 618.636 350.988 619.135C351.965 619.692 352.634 620.44 352.996 621.381C353.362 622.317 353.399 623.304 353.108 624.343L353.244 624.422C354.086 623.368 355.061 622.739 356.168 622.533C357.278 622.322 358.381 622.536 359.475 623.175C360.435 623.722 361.139 624.483 361.587 625.458C362.038 626.428 362.215 627.5 362.118 628.673C362.016 629.844 361.621 631.024 360.935 632.212ZM370.295 616.118C369.515 617.456 368.5 618.398 367.249 618.944C365.998 619.489 364.557 619.627 362.925 619.356C361.294 619.085 359.533 618.404 357.643 617.313C355.758 616.225 354.294 615.044 353.249 613.769C352.208 612.489 351.61 611.171 351.458 609.815C351.308 608.454 351.617 607.108 352.385 605.778C353.153 604.448 354.165 603.512 355.421 602.97C356.671 602.425 358.11 602.286 359.736 602.553C361.36 602.811 363.114 603.485 364.998 604.573C366.894 605.667 368.367 606.853 369.417 608.131C370.462 609.406 371.064 610.723 371.222 612.082C371.375 613.437 371.066 614.783 370.295 616.118ZM368.028 614.81C368.708 613.633 368.665 612.382 367.898 611.057C367.135 609.726 365.667 608.433 363.494 607.178C362.051 606.345 360.743 605.794 359.571 605.525C358.396 605.246 357.388 605.241 356.546 605.51C355.702 605.77 355.056 606.287 354.609 607.062C353.933 608.234 353.979 609.486 354.748 610.821C355.517 612.155 356.983 613.45 359.147 614.707C360.596 615.544 361.907 616.101 363.082 616.379C364.254 616.649 365.26 616.652 366.098 616.389C366.931 616.123 367.574 615.597 368.028 614.81ZM379.617 599.972C378.837 601.31 377.822 602.252 376.571 602.797C375.32 603.343 373.879 603.48 372.247 603.21C370.616 602.939 368.855 602.258 366.965 601.167C365.08 600.079 363.616 598.898 362.571 597.623C361.53 596.343 360.932 595.025 360.78 593.669C360.63 592.307 360.939 590.962 361.707 589.632C362.475 588.302 363.487 587.366 364.743 586.824C365.993 586.278 367.432 586.139 369.058 586.407C370.682 586.665 372.436 587.338 374.32 588.426C376.216 589.521 377.689 590.707 378.739 591.985C379.784 593.26 380.386 594.576 380.544 595.935C380.697 597.291 380.388 598.637 379.617 599.972ZM377.35 598.664C378.03 597.487 377.987 596.236 377.22 594.91C376.457 593.579 374.989 592.287 372.816 591.032C371.373 590.199 370.065 589.648 368.893 589.378C367.718 589.1 366.71 589.095 365.868 589.364C365.024 589.623 364.378 590.141 363.931 590.916C363.255 592.087 363.301 593.34 364.07 594.674C364.839 596.009 366.305 597.304 368.469 598.561C369.918 599.397 371.229 599.955 372.404 600.233C373.576 600.503 374.582 600.506 375.42 600.243C376.253 599.977 376.896 599.45 377.35 598.664ZM380.998 583.389C379.825 585.421 380.518 588.084 382.574 589.271C384.653 590.472 387.306 589.741 388.479 587.709C389.68 585.629 388.973 582.99 386.893 581.79C384.838 580.603 382.199 581.31 380.998 583.389ZM387.045 586.881C386.328 588.124 384.693 588.582 383.402 587.837C382.135 587.105 381.715 585.46 382.432 584.217C383.177 582.927 384.799 582.492 386.065 583.224C387.356 583.969 387.79 585.59 387.045 586.881Z" fill="white"/>
<path opacity="0.5" d="M385.512 928.471L383.611 929.569L374.121 927.205C373.096 926.959 372.217 926.777 371.484 926.657C370.742 926.534 370.085 926.502 369.515 926.56C368.945 926.617 368.405 926.793 367.896 927.087C367.319 927.42 366.899 927.844 366.637 928.357C366.369 928.874 366.258 929.432 366.303 930.033C366.342 930.636 366.532 931.232 366.871 931.821C367.231 932.443 367.672 932.913 368.194 933.23C368.717 933.547 369.282 933.696 369.89 933.677C370.497 933.658 371.113 933.469 371.735 933.11L373.181 935.614C372.122 936.225 371.057 936.515 369.984 936.486C368.91 936.457 367.911 936.144 366.985 935.546C366.054 934.952 365.276 934.115 364.652 933.034C364.021 931.942 363.684 930.854 363.639 929.771C363.586 928.685 363.797 927.692 364.273 926.791C364.743 925.893 365.445 925.175 366.379 924.636C367.024 924.263 367.725 924.021 368.482 923.908C369.236 923.79 370.164 923.808 371.265 923.965C372.361 924.125 373.752 924.423 375.438 924.86L381.048 926.227L381.175 926.154L376.657 918.328L378.906 917.029L385.512 928.471ZM373.666 915.794L371.544 917.019L355.341 916.358L354.376 914.686L357.499 912.883L358.112 913.944L369.719 914.406L369.855 914.328L363.91 904.032L366.134 902.748L373.666 915.794ZM372.303 905.592L368.263 907.925L367.285 908.466L354.91 915.611L353.474 913.124L370.857 903.088L372.303 905.592ZM364.202 890.894C364.971 892.238 365.279 893.588 365.126 894.944C364.973 896.3 364.371 897.617 363.321 898.895C362.271 900.173 360.8 901.357 358.91 902.448C357.026 903.536 355.271 904.214 353.645 904.481C352.015 904.743 350.575 904.601 349.325 904.056C348.071 903.504 347.06 902.564 346.292 901.234C345.524 899.904 345.22 898.56 345.378 897.201C345.531 895.845 346.13 894.53 347.175 893.255C348.21 891.978 349.67 890.796 351.555 889.708C353.45 888.613 355.214 887.931 356.846 887.66C358.472 887.393 359.913 887.53 361.17 888.072C362.42 888.618 363.431 889.558 364.202 890.894ZM361.936 892.202C361.256 891.025 360.151 890.437 358.62 890.439C357.086 890.434 355.232 891.059 353.059 892.314C351.616 893.147 350.485 894.004 349.665 894.884C348.837 895.762 348.329 896.633 348.14 897.496C347.943 898.357 348.069 899.175 348.516 899.95C349.192 901.122 350.3 901.708 351.84 901.709C353.38 901.71 355.235 901.088 357.406 899.843C358.855 899.006 359.993 898.149 360.822 897.271C361.641 896.39 362.147 895.521 362.338 894.664C362.524 893.809 362.39 892.989 361.936 892.202ZM350.531 881.406C351.704 883.438 354.357 884.169 356.413 882.982C358.492 881.782 359.186 879.119 358.013 877.087C356.812 875.007 354.173 874.3 352.094 875.501C350.038 876.688 349.331 879.327 350.531 881.406ZM356.579 877.915C357.296 879.158 356.876 880.803 355.585 881.548C354.318 882.28 352.683 881.821 351.966 880.578C351.22 879.288 351.655 877.666 352.922 876.935C354.212 876.19 355.834 876.624 356.579 877.915Z" fill="white"/>
<path opacity="0.5" d="M907.961 897.591L890.578 887.555L892.097 884.924L906.849 893.441L906.908 893.339L906.593 887.612L909.106 889.062L909.436 895.036L907.961 897.591ZM887.449 892.974L889.35 894.072L892.048 903.473C892.348 904.483 892.629 905.336 892.892 906.031C893.157 906.735 893.457 907.319 893.792 907.784C894.127 908.249 894.549 908.629 895.059 908.923C895.636 909.256 896.212 909.408 896.788 909.378C897.369 909.351 897.908 909.168 898.406 908.829C898.909 908.494 899.33 908.032 899.67 907.443C900.03 906.821 900.216 906.204 900.229 905.593C900.242 904.982 900.089 904.418 899.769 903.901C899.448 903.384 898.977 902.946 898.355 902.587L899.8 900.083C900.858 900.694 901.643 901.471 902.154 902.415C902.666 903.359 902.894 904.381 902.84 905.482C902.791 906.585 902.455 907.678 901.831 908.758C901.2 909.851 900.427 910.687 899.511 911.267C898.597 911.856 897.632 912.17 896.613 912.208C895.601 912.25 894.628 912.001 893.694 911.462C893.049 911.09 892.488 910.604 892.012 910.005C891.533 909.411 891.085 908.598 890.67 907.566C890.26 906.537 889.823 905.183 889.359 903.505L887.738 897.962L887.611 897.889L883.092 905.715L880.843 904.416L887.449 892.974ZM874.789 914.236C875.569 912.898 876.584 911.956 877.835 911.41C879.085 910.865 880.526 910.727 882.158 910.998C883.79 911.269 885.551 911.95 887.441 913.041C889.325 914.129 890.79 915.31 891.835 916.585C892.876 917.865 893.473 919.183 893.626 920.539C893.775 921.9 893.466 923.246 892.699 924.576C891.931 925.905 890.919 926.842 889.663 927.384C888.412 927.929 886.974 928.068 885.348 927.801C883.724 927.543 881.97 926.869 880.085 925.781C878.19 924.687 876.717 923.501 875.666 922.223C874.622 920.948 874.02 919.631 873.862 918.272C873.709 916.917 874.018 915.571 874.789 914.236ZM877.055 915.544C876.376 916.721 876.419 917.972 877.186 919.297C877.949 920.628 879.417 921.921 881.59 923.176C883.033 924.009 884.34 924.56 885.513 924.829C886.687 925.108 887.696 925.113 888.537 924.844C889.381 924.584 890.027 924.067 890.475 923.292C891.151 922.12 891.105 920.868 890.336 919.533C889.567 918.199 888.101 916.904 885.937 915.647C884.488 914.81 883.176 914.253 882.002 913.975C880.829 913.705 879.824 913.702 878.985 913.965C878.153 914.231 877.509 914.757 877.055 915.544ZM873.408 930.818C874.581 928.787 873.887 926.124 871.832 924.937C869.752 923.736 867.099 924.467 865.926 926.499C864.726 928.578 865.433 931.218 867.512 932.418C869.568 933.605 872.207 932.898 873.408 930.818ZM867.36 927.327C868.078 926.084 869.713 925.626 871.004 926.371C872.27 927.102 872.691 928.747 871.973 929.99C871.228 931.281 869.607 931.715 868.34 930.984C867.05 930.239 866.615 928.618 867.36 927.327Z" fill="white"/>
<path opacity="0.5" d="M503.894 1028.71L502.635 1030.51L493.034 1032.38C492.002 1032.59 491.128 1032.79 490.413 1033C489.688 1033.2 489.08 1033.45 488.587 1033.74C488.095 1034.03 487.68 1034.42 487.343 1034.9C486.96 1035.45 486.759 1036.01 486.739 1036.59C486.714 1037.17 486.85 1037.72 487.144 1038.25C487.435 1038.78 487.858 1039.24 488.415 1039.63C489.004 1040.04 489.602 1040.28 490.209 1040.34C490.817 1040.41 491.392 1040.31 491.935 1040.03C492.478 1039.76 492.955 1039.33 493.367 1038.74L495.736 1040.4C495.035 1041.4 494.192 1042.11 493.207 1042.54C492.222 1042.97 491.184 1043.1 490.092 1042.95C488.997 1042.81 487.939 1042.38 486.916 1041.66C485.883 1040.94 485.118 1040.1 484.619 1039.13C484.112 1038.17 483.884 1037.18 483.934 1036.17C483.981 1035.15 484.313 1034.21 484.932 1033.32C485.359 1032.71 485.892 1032.2 486.531 1031.77C487.164 1031.35 488.013 1030.97 489.077 1030.65C490.137 1030.33 491.524 1030.01 493.237 1029.7L498.9 1028.57L498.984 1028.44L491.581 1023.26L493.071 1021.13L503.894 1028.71ZM471.599 1030.6L483.112 1014.16L485.601 1015.9L475.83 1029.86L475.927 1029.92L481.66 1030.11L479.995 1032.49L474.015 1032.29L471.599 1030.6ZM472.452 1006.29C473.717 1007.18 474.567 1008.28 475.001 1009.57C475.436 1010.86 475.447 1012.31 475.035 1013.91C474.623 1015.52 473.792 1017.21 472.54 1019C471.292 1020.78 469.987 1022.14 468.627 1023.07C467.26 1023.99 465.895 1024.47 464.531 1024.51C463.162 1024.54 461.848 1024.11 460.591 1023.23C459.333 1022.35 458.489 1021.26 458.058 1019.96C457.623 1018.67 457.61 1017.22 458.018 1015.63C458.417 1014.03 459.241 1012.34 460.489 1010.56C461.744 1008.77 463.054 1007.4 464.419 1006.47C465.78 1005.54 467.144 1005.05 468.512 1005.01C469.876 1004.98 471.189 1005.41 472.452 1006.29ZM470.951 1008.43C469.838 1007.65 468.588 1007.59 467.201 1008.24C465.809 1008.88 464.393 1010.23 462.954 1012.29C461.998 1013.65 461.335 1014.9 460.964 1016.05C460.585 1017.2 460.492 1018.2 460.686 1019.06C460.871 1019.92 461.33 1020.61 462.064 1021.13C463.172 1021.9 464.424 1021.97 465.82 1021.32C467.216 1020.67 468.634 1019.32 470.075 1017.27C471.034 1015.9 471.704 1014.64 472.084 1013.5C472.454 1012.35 472.545 1011.35 472.356 1010.49C472.164 1009.64 471.695 1008.95 470.951 1008.43ZM456.053 1003.47C457.975 1004.81 460.688 1004.36 462.05 1002.41C463.427 1000.44 462.93 997.737 461.008 996.392C459.041 995.015 456.35 995.489 454.973 997.456C453.612 999.4 454.086 1002.09 456.053 1003.47ZM460.058 997.748C461.234 998.572 461.548 1000.24 460.693 1001.46C459.854 1002.66 458.179 1002.94 457.003 1002.11C455.782 1001.26 455.491 999.604 456.33 998.406C457.185 997.185 458.837 996.894 460.058 997.748Z" fill="white"/>
<path opacity="0.5" d="M796.508 1020.3L784.995 1003.86L787.484 1002.12L797.255 1016.07L797.351 1016.01L799.486 1010.68L801.15 1013.06L798.925 1018.61L796.508 1020.3ZM774.284 1011.03C775.291 1010.32 776.33 1009.88 777.403 1009.71C778.474 1009.54 779.486 1009.63 780.438 1009.97C781.39 1010.32 782.188 1010.92 782.831 1011.77L780.422 1013.45C779.869 1012.79 779.149 1012.43 778.263 1012.37C777.377 1012.31 776.538 1012.56 775.746 1013.11C775.114 1013.56 774.656 1014.09 774.372 1014.72C774.085 1015.36 773.983 1016.04 774.064 1016.74C774.14 1017.46 774.409 1018.14 774.87 1018.8C775.338 1019.47 775.901 1019.97 776.557 1020.29C777.214 1020.61 777.901 1020.74 778.619 1020.69C779.332 1020.63 780.017 1020.38 780.674 1019.93C781.172 1019.58 781.612 1019.15 781.995 1018.62C782.378 1018.1 782.628 1017.59 782.743 1017.09L785.252 1015.84L790.13 1024.77L781.09 1031.1L779.6 1028.97L786.577 1024.09L783.877 1019.12L783.781 1019.19C783.677 1019.73 783.434 1020.28 783.05 1020.86C782.661 1021.45 782.161 1021.95 781.551 1022.38C780.55 1023.08 779.492 1023.47 778.377 1023.54C777.257 1023.61 776.183 1023.39 775.156 1022.88C774.128 1022.38 773.244 1021.6 772.503 1020.53C771.752 1019.47 771.328 1018.35 771.23 1017.17C771.127 1016 771.335 1014.87 771.854 1013.79C772.372 1012.72 773.182 1011.8 774.284 1011.03ZM759.255 1021.48C760.528 1020.6 761.846 1020.17 763.21 1020.21C764.574 1020.24 765.938 1020.72 767.302 1021.66C768.667 1022.59 769.975 1023.96 771.227 1025.74C772.475 1027.53 773.303 1029.21 773.711 1030.81C774.114 1032.41 774.098 1033.86 773.664 1035.15C773.224 1036.45 772.375 1037.54 771.117 1038.42C769.859 1039.3 768.547 1039.72 767.179 1039.68C765.815 1039.65 764.453 1039.17 763.092 1038.24C761.729 1037.32 760.424 1035.96 759.176 1034.18C757.921 1032.39 757.087 1030.69 756.675 1029.09C756.267 1027.49 756.278 1026.04 756.709 1024.75C757.143 1023.45 757.992 1022.36 759.255 1021.48ZM760.756 1023.62C759.643 1024.4 759.154 1025.55 759.288 1027.08C759.417 1028.61 760.202 1030.4 761.641 1032.46C762.597 1033.82 763.549 1034.87 764.497 1035.61C765.444 1036.36 766.356 1036.79 767.232 1036.9C768.107 1037.03 768.911 1036.83 769.644 1036.32C770.752 1035.54 771.24 1034.38 771.107 1032.85C770.974 1031.32 770.192 1029.52 768.762 1027.47C767.803 1026.1 766.85 1025.04 765.902 1024.29C764.954 1023.55 764.044 1023.12 763.173 1023.01C762.306 1022.9 761.5 1023.1 760.756 1023.62ZM750.995 1035.92C752.917 1034.58 753.414 1031.87 752.053 1029.93C750.675 1027.96 747.962 1027.5 746.04 1028.85C744.073 1030.22 743.599 1032.92 744.976 1034.88C746.338 1036.83 749.028 1037.3 750.995 1035.92ZM746.99 1030.2C748.166 1029.38 749.841 1029.66 750.696 1030.88C751.535 1032.08 751.221 1033.74 750.045 1034.57C748.825 1035.42 747.172 1035.13 746.333 1033.93C745.478 1032.71 745.769 1031.06 746.99 1030.2Z" fill="white"/>
<path d="M637.428 312.903V353.63H631.781L611.079 323.761H610.701V353.63H604.556V312.903H610.244L630.965 342.812H631.343V312.903H637.428Z" fill="#EAEAEA"/>
<path d="M1041.6 773V732.273H1067.14V737.563H1047.75V749.972H1065.8V755.242H1047.75V767.71H1067.38V773H1041.6Z" fill="#EAEAEA"/>
<path d="M629.168 1181.6C628.955 1179.72 628.08 1178.26 626.543 1177.23C625.005 1176.18 623.069 1175.66 620.736 1175.66C619.065 1175.66 617.62 1175.92 616.401 1176.45C615.181 1176.97 614.233 1177.68 613.557 1178.6C612.894 1179.5 612.562 1180.53 612.562 1181.68C612.562 1182.65 612.788 1183.48 613.239 1184.19C613.703 1184.89 614.306 1185.48 615.048 1185.96C615.804 1186.42 616.613 1186.81 617.474 1187.13C618.336 1187.44 619.165 1187.69 619.96 1187.89L623.937 1188.92C625.237 1189.24 626.569 1189.67 627.935 1190.21C629.3 1190.76 630.566 1191.47 631.733 1192.36C632.9 1193.25 633.841 1194.35 634.557 1195.66C635.286 1196.97 635.651 1198.55 635.651 1200.37C635.651 1202.68 635.054 1204.73 633.861 1206.52C632.681 1208.31 630.964 1209.72 628.71 1210.76C626.47 1211.79 623.759 1212.31 620.577 1212.31C617.527 1212.31 614.889 1211.82 612.662 1210.85C610.435 1209.89 608.691 1208.51 607.432 1206.74C606.172 1204.95 605.476 1202.83 605.344 1200.37H611.509C611.628 1201.85 612.105 1203.07 612.94 1204.05C613.789 1205.02 614.869 1205.74 616.182 1206.22C617.508 1206.69 618.959 1206.92 620.537 1206.92C622.274 1206.92 623.818 1206.65 625.17 1206.1C626.536 1205.55 627.61 1204.78 628.392 1203.8C629.174 1202.8 629.565 1201.64 629.565 1200.31C629.565 1199.11 629.221 1198.12 628.531 1197.35C627.855 1196.58 626.934 1195.95 625.767 1195.44C624.614 1194.94 623.308 1194.49 621.849 1194.11L617.037 1192.8C613.776 1191.91 611.19 1190.6 609.281 1188.88C607.385 1187.16 606.437 1184.88 606.437 1182.04C606.437 1179.69 607.074 1177.64 608.347 1175.89C609.619 1174.14 611.343 1172.79 613.517 1171.82C615.691 1170.84 618.144 1170.35 620.875 1170.35C623.633 1170.35 626.065 1170.83 628.173 1171.8C630.294 1172.77 631.965 1174.1 633.185 1175.8C634.404 1177.48 635.041 1179.41 635.094 1181.6H629.168Z" fill="#EAEAEA"/>
<path d="M175.578 780L164.282 739.273H170.745L178.68 770.813H179.058L187.311 739.273H193.714L201.967 770.832H202.345L210.26 739.273H216.743L205.427 780H199.243L190.671 749.494H190.353L181.782 780H175.578Z" fill="#EAEAEA"/>
<path d="M637.823 1073.44V1049H642.249V1069.13H642.393L648.108 1065.48V1069.53L642.035 1073.44H637.823ZM621.924 1048.67C623.698 1048.67 625.273 1048.96 626.649 1049.56C628.017 1050.16 629.091 1050.97 629.87 1052.01C630.642 1053.05 631.024 1054.23 631.016 1055.55C631.024 1056.58 630.801 1057.52 630.348 1058.38C629.894 1059.24 629.282 1059.95 628.51 1060.53C627.731 1061.11 626.864 1061.48 625.909 1061.64V1061.8C627.166 1062.08 628.184 1062.72 628.964 1063.72C629.735 1064.73 630.117 1065.9 630.109 1067.22C630.117 1068.48 629.767 1069.6 629.059 1070.58C628.351 1071.57 627.381 1072.35 626.148 1072.91C624.915 1073.48 623.507 1073.77 621.924 1073.77C620.357 1073.77 618.961 1073.48 617.736 1072.91C616.503 1072.35 615.532 1071.57 614.824 1070.58C614.108 1069.6 613.751 1068.48 613.751 1067.22C613.751 1065.9 614.144 1064.73 614.932 1063.72C615.711 1062.72 616.718 1062.08 617.951 1061.8V1061.64C616.996 1061.48 616.137 1061.11 615.373 1060.53C614.602 1059.95 613.989 1059.24 613.536 1058.38C613.074 1057.52 612.844 1056.58 612.844 1055.55C612.844 1054.23 613.233 1053.05 614.013 1052.01C614.793 1050.97 615.866 1050.16 617.235 1049.56C618.595 1048.96 620.158 1048.67 621.924 1048.67ZM621.924 1052.08C621.009 1052.08 620.214 1052.23 619.537 1052.54C618.861 1052.86 618.336 1053.31 617.962 1053.88C617.589 1054.45 617.398 1055.11 617.39 1055.86C617.398 1056.64 617.601 1057.33 617.998 1057.92C618.388 1058.53 618.925 1059 619.609 1059.34C620.285 1059.69 621.057 1059.86 621.924 1059.86C622.799 1059.86 623.578 1059.69 624.262 1059.34C624.947 1059 625.487 1058.53 625.885 1057.92C626.275 1057.33 626.466 1056.64 626.458 1055.86C626.466 1055.11 626.283 1054.45 625.909 1053.88C625.535 1053.32 625.01 1052.87 624.334 1052.56C623.65 1052.24 622.847 1052.08 621.924 1052.08ZM621.924 1063.21C621.176 1063.21 620.516 1063.36 619.943 1063.66C619.362 1063.97 618.905 1064.39 618.571 1064.93C618.237 1065.47 618.066 1066.09 618.058 1066.8C618.066 1067.5 618.233 1068.11 618.559 1068.64C618.885 1069.17 619.339 1069.58 619.919 1069.87C620.5 1070.16 621.168 1070.31 621.924 1070.31C622.695 1070.31 623.376 1070.16 623.964 1069.87C624.545 1069.58 624.998 1069.17 625.324 1068.64C625.643 1068.11 625.798 1067.5 625.79 1066.8C625.798 1066.09 625.639 1065.47 625.312 1064.93C624.978 1064.4 624.521 1063.97 623.94 1063.66C623.352 1063.36 622.679 1063.21 621.924 1063.21ZM598.881 1048.53C600.845 1048.53 602.532 1049.03 603.94 1050.03C605.34 1051.03 606.418 1052.47 607.173 1054.36C607.921 1056.25 608.295 1058.53 608.295 1061.19C608.287 1063.86 607.909 1066.13 607.161 1068C606.406 1069.87 605.328 1071.3 603.928 1072.29C602.52 1073.28 600.838 1073.77 598.881 1073.77C596.924 1073.77 595.242 1073.28 593.834 1072.29C592.426 1071.3 591.348 1069.87 590.6 1068C589.844 1066.12 589.467 1063.85 589.467 1061.19C589.467 1058.52 589.844 1056.24 590.6 1054.35C591.348 1052.46 592.426 1051.02 593.834 1050.03C595.234 1049.03 596.916 1048.53 598.881 1048.53ZM598.881 1052.27C597.353 1052.27 596.148 1053.02 595.265 1054.52C594.374 1056.04 593.929 1058.26 593.929 1061.19C593.929 1063.14 594.132 1064.77 594.538 1066.09C594.943 1067.41 595.516 1068.4 596.256 1069.07C596.995 1069.75 597.87 1070.08 598.881 1070.08C600.4 1070.08 601.601 1069.33 602.484 1067.82C603.367 1066.31 603.813 1064.11 603.82 1061.19C603.828 1059.25 603.634 1057.61 603.236 1056.28C602.83 1054.95 602.257 1053.95 601.518 1053.27C600.778 1052.6 599.899 1052.27 598.881 1052.27ZM580.181 1057.23C583.037 1057.23 585.423 1054.88 585.423 1051.99C585.423 1049.07 583.037 1046.72 580.181 1046.72C577.258 1046.72 574.906 1049.07 574.906 1051.99C574.906 1054.88 577.258 1057.23 580.181 1057.23ZM580.181 1048.73C581.928 1048.73 583.407 1050.18 583.407 1051.99C583.407 1053.77 581.928 1055.22 580.181 1055.22C578.367 1055.22 576.922 1053.77 576.922 1051.99C576.922 1050.18 578.367 1048.73 580.181 1048.73Z" fill="white"/>
<path d="M344 788.199L341.327 788.199L332.76 779.93C331.83 779.047 331.014 778.319 330.314 777.747C329.606 777.166 328.934 776.732 328.298 776.446C327.661 776.16 326.985 776.017 326.269 776.017C325.458 776.017 324.758 776.207 324.169 776.589C323.573 776.971 323.115 777.492 322.797 778.152C322.471 778.813 322.308 779.556 322.308 780.384C322.308 781.259 322.487 782.022 322.845 782.675C323.203 783.327 323.708 783.828 324.36 784.178C325.013 784.528 325.776 784.703 326.651 784.703L326.651 788.223C325.164 788.223 323.863 787.881 322.749 787.197C321.636 786.513 320.773 785.574 320.16 784.381C319.54 783.188 319.23 781.831 319.23 780.312C319.23 778.777 319.536 777.425 320.148 776.255C320.753 775.078 321.58 774.159 322.63 773.499C323.672 772.839 324.849 772.509 326.162 772.509C327.069 772.509 327.956 772.68 328.823 773.022C329.69 773.356 330.656 773.94 331.722 774.776C332.78 775.611 334.065 776.772 335.576 778.26L340.659 783.116L340.838 783.116L340.838 772.115L344 772.115L344 788.199ZM344 765.499L322.905 754.832L322.726 754.832L322.726 767.169L319.564 767.169L319.564 751.014L322.833 751.014L344 761.645L344 765.499ZM344.465 737.265C344.465 739.23 343.968 740.917 342.974 742.325C341.972 743.725 340.528 744.802 338.643 745.558C336.749 746.306 334.471 746.68 331.806 746.68C329.141 746.672 326.874 746.294 325.005 745.546C323.127 744.79 321.696 743.713 320.709 742.313C319.723 740.905 319.23 739.222 319.23 737.265C319.23 735.309 319.723 733.626 320.709 732.218C321.696 730.81 323.127 729.733 325.005 728.985C326.882 728.229 329.149 727.851 331.806 727.851C334.478 727.851 336.761 728.229 338.655 728.985C340.54 729.733 341.98 730.81 342.974 732.218C343.968 733.618 344.465 735.301 344.465 737.265ZM340.731 737.265C340.731 735.738 339.979 734.533 338.476 733.65C336.964 732.759 334.741 732.314 331.806 732.314C329.865 732.314 328.234 732.517 326.914 732.922C325.593 733.328 324.599 733.901 323.931 734.64C323.255 735.38 322.917 736.255 322.917 737.265C322.917 738.785 323.672 739.986 325.184 740.869C326.687 741.752 328.894 742.197 331.806 742.205C333.755 742.213 335.393 742.018 336.722 741.621C338.05 741.215 339.052 740.642 339.728 739.902C340.397 739.163 340.731 738.284 340.731 737.265ZM335.768 718.566C335.768 721.422 338.12 723.807 341.01 723.807C343.933 723.807 346.285 721.422 346.285 718.566C346.285 715.643 343.933 713.291 341.01 713.291C338.12 713.291 335.768 715.643 335.768 718.566ZM344.269 718.566C344.269 720.313 342.824 721.791 341.01 721.791C339.229 721.791 337.784 720.313 337.784 718.566C337.784 716.751 339.229 715.307 341.01 715.307C342.824 715.307 344.269 716.751 344.269 718.566Z" fill="white"/>
<path d="M936.77 743.748C936.762 744.917 936.555 746.055 936.15 747.16C935.752 748.274 935.1 749.276 934.193 750.167C933.294 751.058 932.089 751.766 930.577 752.291C929.066 752.816 927.197 753.079 924.97 753.079C922.87 753.086 920.992 752.864 919.338 752.41C917.691 751.965 916.299 751.325 915.162 750.489C914.024 749.654 913.157 748.648 912.56 747.471C911.964 746.293 911.666 744.969 911.666 743.497C911.666 741.954 911.968 740.586 912.572 739.393C913.177 738.207 914.004 737.249 915.054 736.517C916.104 735.785 917.305 735.336 918.658 735.169L918.658 739.524C917.687 739.747 916.916 740.2 916.343 740.884C915.778 741.576 915.496 742.447 915.496 743.497C915.496 745.192 916.231 746.496 917.703 747.411C919.175 748.326 921.219 748.783 923.836 748.783L923.836 748.616C923.136 748.226 922.531 747.721 922.022 747.101C921.521 746.48 921.135 745.776 920.865 744.989C920.595 744.209 920.459 743.382 920.459 742.507C920.459 741.075 920.801 739.786 921.485 738.641C922.17 737.504 923.108 736.601 924.301 735.932C925.495 735.272 926.859 734.938 928.394 734.93C929.985 734.93 931.413 735.296 932.677 736.028C933.95 736.768 934.952 737.798 935.684 739.118C936.424 740.439 936.786 741.982 936.77 743.748ZM933.191 743.76C933.191 742.901 932.98 742.125 932.558 741.433C932.145 740.749 931.58 740.208 930.864 739.81C930.156 739.421 929.364 739.226 928.489 739.226C927.622 739.234 926.835 739.429 926.127 739.81C925.419 740.2 924.858 740.729 924.445 741.397C924.031 742.073 923.824 742.845 923.824 743.712C923.824 744.356 923.947 744.957 924.194 745.514C924.441 746.071 924.783 746.556 925.22 746.969C925.666 747.391 926.171 747.717 926.735 747.948C927.3 748.186 927.897 748.302 928.525 748.294C929.36 748.294 930.132 748.095 930.84 747.697C931.548 747.307 932.117 746.771 932.546 746.086C932.976 745.41 933.191 744.635 933.191 743.76ZM911.534 767.092C911.534 765.127 912.031 763.441 913.026 762.033C914.028 760.633 915.472 759.555 917.357 758.8C919.25 758.052 921.529 757.678 924.194 757.678C926.859 757.686 929.126 758.064 930.995 758.812C932.872 759.567 934.304 760.645 935.291 762.045C936.277 763.453 936.77 765.135 936.77 767.092C936.77 769.049 936.277 770.731 935.291 772.139C934.304 773.547 932.872 774.625 930.995 775.373C929.118 776.129 926.851 776.506 924.194 776.506C921.521 776.506 919.238 776.129 917.345 775.373C915.46 774.625 914.02 773.547 913.026 772.139C912.031 770.739 911.534 769.057 911.534 767.092ZM915.269 767.092C915.269 768.619 916.021 769.825 917.524 770.708C919.035 771.598 921.259 772.044 924.194 772.044C926.135 772.044 927.766 771.841 929.086 771.435C930.406 771.03 931.401 770.457 932.069 769.717C932.745 768.977 933.083 768.102 933.083 767.092C933.083 765.573 932.327 764.372 930.816 763.489C929.313 762.606 927.105 762.16 924.194 762.152C922.245 762.144 920.606 762.339 919.278 762.737C917.95 763.143 916.947 763.715 916.271 764.455C915.603 765.195 915.269 766.074 915.269 767.092ZM920.232 785.792C920.232 782.936 917.88 780.55 914.99 780.55C912.067 780.55 909.715 782.936 909.715 785.792C909.715 788.715 912.067 791.067 914.99 791.067C917.88 791.067 920.232 788.715 920.232 785.792ZM911.731 785.792C911.731 784.045 913.176 782.566 914.99 782.566C916.771 782.566 918.216 784.045 918.216 785.792C918.216 787.606 916.771 789.051 914.99 789.051C913.176 789.051 911.731 787.606 911.731 785.792Z" fill="white"/>
<path fill-rule="evenodd" clip-rule="evenodd" d="M621 382.63H617V432.63H621V382.63ZM621 1086.63H617V1136.63H621V1086.63Z" fill="white"/>
<path fill-rule="evenodd" clip-rule="evenodd" d="M250 755.63V759.63H300V755.63H250ZM955 755.63V759.63H1005V755.63H955Z" fill="white"/>
<path fill-rule="evenodd" clip-rule="evenodd" d="M299.576 944.648L301.576 948.112L344.878 923.112L342.878 919.648L299.576 944.648ZM910.124 592.148L912.124 595.612L955.425 570.612L953.425 567.148L910.124 592.148Z" fill="white" fill-opacity="0.5"/>
<path fill-rule="evenodd" clip-rule="evenodd" d="M437.018 1083.55L440.482 1085.55L465.482 1042.25L462.018 1040.25L437.018 1083.55ZM789.518 473.006L792.983 475.006L817.983 431.705L814.518 429.705L789.518 473.006Z" fill="white" fill-opacity="0.5"/>
<path fill-rule="evenodd" clip-rule="evenodd" d="M814.518 1085.55L817.982 1083.55L792.982 1040.25L789.518 1042.25L814.518 1085.55ZM462.018 475.006L465.482 473.006L440.482 429.705L437.018 431.705L462.018 475.006Z" fill="white" fill-opacity="0.5"/>
<path fill-rule="evenodd" clip-rule="evenodd" d="M953.426 948.112L955.426 944.647L912.125 919.647L910.125 923.112L953.426 948.112ZM342.878 595.611L344.878 592.147L301.577 567.147L299.577 570.611L342.878 595.611Z" fill="white" fill-opacity="0.5"/>
<path fill-rule="evenodd" clip-rule="evenodd" d="M263 853.096L264.033 856.953L281.388 852.303L280.354 848.446L263 853.096ZM972.613 662.957L973.646 666.813L991.001 662.163L989.967 658.307L972.613 662.957Z" fill="white" fill-opacity="0.3"/>
<path fill-rule="evenodd" clip-rule="evenodd" d="M359.501 1022.31L362.324 1025.13L375.029 1012.42L372.206 1009.6L359.501 1022.31ZM877.999 503.772L880.822 506.595L894.964 492.453L892.141 489.63L877.999 503.772Z" fill="white" fill-opacity="0.3"/>
<path fill-rule="evenodd" clip-rule="evenodd" d="M527.675 1120.6L531.531 1121.63L536.181 1104.27L532.325 1103.24L527.675 1120.6ZM717.814 410.985L721.67 412.018L726.321 394.664L722.464 393.63L717.814 410.985Z" fill="white" fill-opacity="0.3"/>
<path fill-rule="evenodd" clip-rule="evenodd" d="M722.465 1121.63L726.322 1120.6L721.672 1103.24L717.815 1104.28L722.465 1121.63ZM532.326 412.019L536.183 410.985L531.532 393.631L527.676 394.664L532.326 412.019Z" fill="white" fill-opacity="0.3"/>
<path fill-rule="evenodd" clip-rule="evenodd" d="M891.675 1025.13L894.498 1022.31L881.794 1009.6L878.97 1012.43L891.675 1025.13ZM372.203 505.658L375.026 502.835L362.322 490.13L359.498 492.953L372.203 505.658Z" fill="white" fill-opacity="0.3"/>
<path fill-rule="evenodd" clip-rule="evenodd" d="M989.967 856.954L991 853.098L973.645 848.447L972.612 852.304L989.967 856.954ZM280.354 666.814L281.387 662.958L264.032 658.307L262.999 662.164L280.354 666.814Z" fill="white" fill-opacity="0.3"/>
<defs>
<filter id="filter0_f_106_13" x="0.0436401" y="0.235291" width="926.588" height="922.026" filterUnits="userSpaceOnUse" color-interpolation-filters="sRGB">
<feFlood flood-opacity="0" result="BackgroundImageFix"/>
<feBlend mode="normal" in="SourceGraphic" in2="BackgroundImageFix" result="shape"/>
<feGaussianBlur stdDeviation="100" result="effect1_foregroundBlur_106_13"/>
</filter>
<filter id="filter1_f_106_13" x="164.153" y="370.849" width="1251.11" height="1245.47" filterUnits="userSpaceOnUse" color-interpolation-filters="sRGB">
<feFlood flood-opacity="0" result="BackgroundImageFix"/>
<feBlend mode="normal" in="SourceGraphic" in2="BackgroundImageFix" result="shape"/>
<feGaussianBlur stdDeviation="150" result="effect1_foregroundBlur_106_13"/>
</filter>
<filter id="filter2_ddii_106_13" x="56" y="217.63" width="1143" height="1143" filterUnits="userSpaceOnUse" color-interpolation-filters="sRGB">
<feFlood flood-opacity="0" result="BackgroundImageFix"/>
<feColorMatrix in="SourceAlpha" type="matrix" values="0 0 0 0 0 0 0 0 0 0 0 0 0 0 0 0 0 0 127 0" result="hardAlpha"/>
<feMorphology radius="80" operator="dilate" in="SourceAlpha" result="effect1_dropShadow_106_13"/>
<feOffset dy="30"/>
<feGaussianBlur stdDeviation="50"/>
<feComposite in2="hardAlpha" operator="out"/>
<feColorMatrix type="matrix" values="0 0 0 0 0 0 0 0 0 0 0 0 0 0 0 0 0 0 0.3 0"/>
<feBlend mode="normal" in2="BackgroundImageFix" result="effect1_dropShadow_106_13"/>
<feColorMatrix in="SourceAlpha" type="matrix" values="0 0 0 0 0 0 0 0 0 0 0 0 0 0 0 0 0 0 127 0" result="hardAlpha"/>
<feMorphology radius="20" operator="dilate" in="SourceAlpha" result="effect2_dropShadow_106_13"/>
<feOffset dx="-15" dy="-30"/>
<feGaussianBlur stdDeviation="30"/>
<feComposite in2="hardAlpha" operator="out"/>
<feColorMatrix type="matrix" values="0 0 0 0 1 0 0 0 0 1 0 0 0 0 1 0 0 0 0.05 0"/>
<feBlend mode="normal" in2="effect1_dropShadow_106_13" result="effect2_dropShadow_106_13"/>
<feBlend mode="normal" in="SourceGraphic" in2="effect2_dropShadow_106_13" result="shape"/>
<feColorMatrix in="SourceAlpha" type="matrix" values="0 0 0 0 0 0 0 0 0 0 0 0 0 0 0 0 0 0 127 0" result="hardAlpha"/>
<feOffset dy="5"/>
<feGaussianBlur stdDeviation="5"/>
<feComposite in2="hardAlpha" operator="arithmetic" k2="-1" k3="1"/>
<feColorMatrix type="matrix" values="0 0 0 0 0 0 0 0 0 0 0 0 0 0 0 0 0 0 0.25 0"/>
<feBlend mode="normal" in2="shape" result="effect3_innerShadow_106_13"/>
<feColorMatrix in="SourceAlpha" type="matrix" values="0 0 0 0 0 0 0 0 0 0 0 0 0 0 0 0 0 0 127 0" result="hardAlpha"/>
<feOffset dy="-5"/>
<feGaussianBlur stdDeviation="5"/>
<feComposite in2="hardAlpha" operator="arithmetic" k2="-1" k3="1"/>
<feColorMatrix type="matrix" values="0 0 0 0 0 0 0 0 0 0 0 0 0 0 0 0 0 0 0.25 0"/>
<feBlend mode="normal" in2="effect3_innerShadow_106_13" result="effect4_innerShadow_106_13"/>
</filter>
<filter id="filter3_i_106_13" x="375" y="511.63" width="505" height="520" filterUnits="userSpaceOnUse" color-interpolation-filters="sRGB">
<feFlood flood-opacity="0" result="BackgroundImageFix"/>
<feBlend mode="normal" in="SourceGraphic" in2="BackgroundImageFix" result="shape"/>
<feColorMatrix in="SourceAlpha" type="matrix" values="0 0 0 0 0 0 0 0 0 0 0 0 0 0 0 0 0 0 127 0" result="hardAlpha"/>
<feMorphology radius="30" operator="erode" in="SourceAlpha" result="effect1_innerShadow_106_13"/>
<feOffset dy="15"/>
<feGaussianBlur stdDeviation="25"/>
<feComposite in2="hardAlpha" operator="arithmetic" k2="-1" k3="1"/>
<feColorMatrix type="matrix" values="0 0 0 0 0 0 0 0 0 0 0 0 0 0 0 0 0 0 0.2 0"/>
<feBlend mode="normal" in2="shape" result="effect1_innerShadow_106_13"/>
</filter>
<filter id="filter4_di_106_13" x="399.999" y="551.992" width="455" height="455" filterUnits="userSpaceOnUse" color-interpolation-filters="sRGB">
<feFlood flood-opacity="0" result="BackgroundImageFix"/>
<feColorMatrix in="SourceAlpha" type="matrix" values="0 0 0 0 0 0 0 0 0 0 0 0 0 0 0 0 0 0 127 0" result="hardAlpha"/>
<feMorphology radius="20" operator="dilate" in="SourceAlpha" result="effect1_dropShadow_106_13"/>
<feOffset dy="15"/>
<feGaussianBlur stdDeviation="20"/>
<feComposite in2="hardAlpha" operator="out"/>
<feColorMatrix type="matrix" values="0 0 0 0 0 0 0 0 0 0 0 0 0 0 0 0 0 0 0.31 0"/>
<feBlend mode="normal" in2="BackgroundImageFix" result="effect1_dropShadow_106_13"/>
<feBlend mode="normal" in="SourceGraphic" in2="effect1_dropShadow_106_13" result="shape"/>
<feColorMatrix in="SourceAlpha" type="matrix" values="0 0 0 0 0 0 0 0 0 0 0 0 0 0 0 0 0 0 127 0" result="hardAlpha"/>
<feMorphology radius="20" operator="erode" in="SourceAlpha" result="effect2_innerShadow_106_13"/>
<feOffset dy="15"/>
<feGaussianBlur stdDeviation="25"/>
<feComposite in2="hardAlpha" operator="arithmetic" k2="-1" k3="1"/>
<feColorMatrix type="matrix" values="0 0 0 0 0 0 0 0 0 0 0 0 0 0 0 0 0 0 0.51 0"/>
<feBlend mode="normal" in2="shape" result="effect2_innerShadow_106_13"/>
</filter>
<linearGradient id="paint0_linear_106_13" x1="627.499" y1="596.992" x2="623.079" y2="932.028" gradientUnits="userSpaceOnUse">
<stop stop-color="white" stop-opacity="0.26"/>
<stop offset="1" stop-color="white" stop-opacity="0.04"/>
</linearGradient>
</defs>
</svg>
