<svg xmlns="http://www.w3.org/2000/svg"  viewBox="0 0 53 53" width="53px" height="53px"><path fill="#ededed" d="M50.5,23.8521614c0,3.8500366-3.1099854,6.960022-6.960022,6.960022 c-1.0999756,0-2.1499634-0.25-3.0700073-0.710022c-1.0499878,1.8500366-3.039978,3.1000366-5.3199463,3.1000366 c-1.8300171,0-3.460022-0.8000488-4.5800171-2.0700073c-0.2600098-0.2900391-0.4899902-0.6100464-0.6900024-0.9500122 c-1.1900024,1.8200073-3.2399902,3.0200195-5.5800171,3.0200195c-1.7199707,0-3.289978-0.6500244-4.4699707-1.7200317 c-0.5599976-0.5100098-1.0300293-1.1099854-1.3900146-1.7799683C17.5,31.4621468,15.6500244,32.662159,13.5200195,32.662159 c-2.1400146,0-4-1.2099609-4.9299927-2.9799805C5.1900024,29.5121956,2.5,26.7221565,2.5,23.2921638 c0-3.5299683,2.8599854-6.3999634,6.3900146-6.3999634c0.5599976,0,1.1099854,0.0799561,1.6199951,0.2099609 c-0.2299805-0.6900024-0.3599854-1.4299927-0.3599854-2.2000122c0-3.8200073,3.0999756-6.9199829,6.9299927-6.9199829 c1.3800049,0,2.6699829,0.4000244,3.75,1.1099854c2.0899658-4.0100098,6.289978-6.75,11.1300049-6.75 c6.9299927,0,12.5599976,5.6300049,12.5599976,12.5599976c0,0.7000122-0.0599976,1.3800049-0.1700439,2.0400391 C47.8099976,17.3421516,50.5,20.2921638,50.5,23.8521614z"/><path fill="#dbdbdb" d="M31.5100098,25.6321907l-0.9400024,5.5c-0.2600098-0.2900391-0.4899902-0.6100464-0.6900024-0.9500122 c-1.1900024,1.8200073-3.2399902,3.0200195-5.5800171,3.0200195c-1.7199707,0-3.289978-0.6500244-4.4699707-1.7200317 l6.6399536-8.1400146c1.1690273-1.4239254,3.25741-1.3922405,4.4100342-0.0299683 C31.4199829,23.952198,31.6500244,24.7921638,31.5100098,25.6321907z"/><path fill="#ffc536" d="M28.0189018,24.6047554L16.6021843,38.6027069c-0.455904,0.558979-0.0646515,1.3973045,0.6566124,1.4069099 l5.9580994,0.0793571c0.5399628,0.0071907,0.9404716,0.5033607,0.83358,1.0326843l-1.7164555,8.4998093 c-0.1763,0.8730278,0.9256802,1.4075851,1.5021858,0.7286911l11.0384007-12.9987831 c0.4816818-0.5672264,0.0666885-1.4372635-0.677269-1.419899l-5.4553814,0.127346 c-0.5421066,0.0126534-0.9611568-0.4723511-0.8699551-1.0068779l1.6648083-9.7572937 C29.6858044,24.4214039,28.5788021,23.9182663,28.0189018,24.6047554z"/></svg>