<svg xmlns="http://www.w3.org/2000/svg"  viewBox="0 0 48 48" width="64px" height="64px"><g data-name="10-scattered thunderstorms"><path fill="#ffd747" d="M14,5a9.008,9.008,0,0,1,8.78,7l.29.22a6.2,6.2,0,0,0-.51.75,8.316,8.316,0,0,0-3.18-.64,7.5,7.5,0,0,0-7.42,5.4A9.19,9.19,0,0,0,8.3,20.96,9,9,0,0,1,14,5Z"/><path fill="#8a90a0" d="M27,34H16.52C11.26,34,7,30.12,7,25.33a8,8,0,0,1,1.3-4.37,9.19,9.19,0,0,1,3.66-3.23,7.5,7.5,0,0,1,7.42-5.4,8.316,8.316,0,0,1,3.18.64,6.2,6.2,0,0,1,.51-.75A10.762,10.762,0,0,1,31.76,8c5.79,0,10.48,4.27,10.48,9.53,0,.1-.01.2-.02.3A8.547,8.547,0,0,1,47,25.33C47,30.12,42.74,34,37.48,34H27Z"/><path fill="#ffd747" d="M14,4a1,1,0,0,1-1-1V1a1,1,0,0,1,2,0V3A1,1,0,0,1,14,4Z"/><path fill="#ffd747" d="M21.78,7.22a1,1,0,0,1-.707-1.707l1.41-1.41A1,1,0,0,1,23.9,5.517l-1.41,1.41A.993.993,0,0,1,21.78,7.22Z"/><path fill="#ffd747" d="M3,15H1a1,1,0,0,1,0-2H3a1,1,0,0,1,0,2Z"/><path fill="#ffd747" d="M6.22,7.22a.993.993,0,0,1-.707-.293L4.1,5.517A1,1,0,0,1,5.517,4.1l1.41,1.41A1,1,0,0,1,6.22,7.22Z"/><path fill="#fff566" d="M15,7a8.993,8.993,0,0,1,7.488,4.014A9,9,0,1,0,6.5,18.964,9.005,9.005,0,0,1,15,7Z"/><path fill="#ffc247" d="M8.3,20.96a9.19,9.19,0,0,1,3.66-3.23,7.5,7.5,0,0,1,7.42-5.4,8.316,8.316,0,0,1,3.18.64,6.2,6.2,0,0,1,.51-.75L22.78,12a8.878,8.878,0,0,0-.65-1.852c-.018.025-.041.047-.06.072a6.2,6.2,0,0,0-.51.75,8.316,8.316,0,0,0-3.18-.64,7.5,7.5,0,0,0-7.42,5.4A9.19,9.19,0,0,0,7.3,18.96c-.132.2-.238.421-.351.634A8.859,8.859,0,0,0,8.3,20.96Z"/><path fill="#bec3d2" d="M47,25.33a8.547,8.547,0,0,0-4.78-7.5c.01-.1.02-.2.02-.3C42.24,12.27,37.55,8,31.76,8a10.762,10.762,0,0,0-8.69,4.22,6.2,6.2,0,0,0-.51.75,8.316,8.316,0,0,0-3.18-.64,7.5,7.5,0,0,0-7.42,5.4A9.19,9.19,0,0,0,8.3,20.96a8.05,8.05,0,0,0-1.185,3.069c.032-.014.061-.033.093-.047C8.017,21.129,11.2,19,15,19a9.758,9.758,0,0,1,3.339.591,5.792,5.792,0,0,1,.536-.693A11.906,11.906,0,0,1,28,15c6.08,0,11,3.942,11,8.8a2.347,2.347,0,0,1-.021.277C41.974,25.449,44,28.034,44,31a6.288,6.288,0,0,1-.043.675A8.3,8.3,0,0,0,47,25.33Z"/><path fill="#9da3b5" d="M38.981,24.074A2.347,2.347,0,0,0,39,23.8c0-4.855-4.924-8.8-11-8.8A11.906,11.906,0,0,0,18.874,18.9a5.792,5.792,0,0,0-.536.693A9.758,9.758,0,0,0,15,19c-3.8,0-6.982,2.132-7.791,4.985-.032.014-.061.033-.093.047a7.609,7.609,0,0,0,.126,3.218c.158-.087.307-.186.471-.265A7.1,7.1,0,0,1,14.761,22a8.083,8.083,0,0,1,3.021.591,5.649,5.649,0,0,1,.485-.693A10.331,10.331,0,0,1,26.522,18c5.5,0,9.956,3.942,9.956,8.8a2.578,2.578,0,0,1-.019.277A7.952,7.952,0,0,1,40.954,33.4a9.65,9.65,0,0,0,3-1.724A6.288,6.288,0,0,0,44,31C44,28.034,41.974,25.449,38.981,24.074Z"/><path fill="#31c4ff" d="M17.7,44.193a2.754,2.754,0,1,1-3.9-3.895C14.882,39.223,19,39,19,39S18.777,43.118,17.7,44.193Z"/><path fill="#31c4ff" d="M6.7,46.193A2.754,2.754,0,0,1,2.807,42.3C3.882,41.223,8,41,8,41S7.777,45.118,6.7,46.193Z"/><path fill="#31c4ff" d="M12.7,36.193A2.754,2.754,0,0,1,8.807,32.3C9.882,31.223,14,31,14,31S13.777,35.118,12.7,36.193Z"/><polygon fill="#ffd747" points="22 47 38 34 33 34 38 29 30 29 23 36 29 36 22 47"/><polygon fill="#ff9500" points="30 29 23 36 26 36 33 29 30 29"/><polygon fill="#ff9500" points="29 36 22 47 28.212 41.953 32 36 29 36"/><polygon fill="#707789" points="30 29 25 29 20 34 25 34 30 29"/><path fill="#0091ff" d="M14.807,43.193a2.744,2.744,0,0,1-.458-3.264,2.089,2.089,0,0,0-.542.369,2.754,2.754,0,1,0,3.9,3.895,2.089,2.089,0,0,0,.369-.542A2.744,2.744,0,0,1,14.807,43.193Z"/><path fill="#0091ff" d="M9.807,35.193a2.744,2.744,0,0,1-.458-3.264,2.089,2.089,0,0,0-.542.369A2.754,2.754,0,0,0,12.7,36.193a2.089,2.089,0,0,0,.369-.542A2.744,2.744,0,0,1,9.807,35.193Z"/><path fill="#0091ff" d="M3.807,45.193a2.744,2.744,0,0,1-.458-3.264,2.089,2.089,0,0,0-.542.369,2.754,2.754,0,0,0,3.9,3.895,2.089,2.089,0,0,0,.369-.542A2.744,2.744,0,0,1,3.807,45.193Z"/><ellipse cx="35.684" cy="13.695" fill="#f6fafd" rx="1.642" ry="2.286" transform="rotate(-45.02 35.684 13.695)"/><ellipse cx="38.682" cy="16.708" fill="#f6fafd" rx=".825" ry="1.148" transform="rotate(-45.02 38.681 16.707)"/><ellipse cx="16.682" cy="8.708" fill="#f6fafd" rx=".825" ry="1.148" transform="rotate(-45.02 16.68 8.708)"/><ellipse cx="14.427" cy="8.208" fill="#f6fafd" rx=".413" ry=".574" transform="rotate(-45.02 14.427 8.208)"/><ellipse cx="12.427" cy="34.208" fill="#f6fafd" rx=".413" ry=".574" transform="rotate(-45.02 12.427 34.208)"/><ellipse cx="33.427" cy="31.208" fill="#f6fafd" rx=".413" ry=".574" transform="rotate(-45.02 33.427 31.208)"/><ellipse cx="17.427" cy="42.208" fill="#f6fafd" rx=".413" ry=".574" transform="rotate(-45.02 17.427 42.208)"/><ellipse cx="6.427" cy="44.208" fill="#f6fafd" rx=".413" ry=".574" transform="rotate(-45.02 6.428 44.209)"/></g></svg>