<svg xmlns="http://www.w3.org/2000/svg"  viewBox="0 0 64 64" width="64px" height="64px"><path fill="#ffce29" d="M59.93,26.77c-0.12,0.34-0.25,0.67-0.4,0.99C56.92,33.79,50.93,38,43.95,38	c-1.72,0-3.38-0.25-4.94-0.73c-5.37-1.63-9.61-5.84-11.28-11.18c-0.5-1.56-0.77-3.21-0.78-4.93c-0.08-8.15,5.87-15.29,13.87-16.85	c1.71-0.34,3.39-0.39,4.99-0.2c0.04,0,0.09,0,0.13,0.01c0.96,0.12,1.36,1.33,0.65,1.99c-2.7,2.53-4.18,6.33-3.46,10.46	c0.81,4.64,4.52,8.38,9.16,9.23c2.19,0.4,4.28,0.18,6.15-0.52C59.35,24.94,60.26,25.85,59.93,26.77z"/><path fill="#4ccff1" d="M33,30c0,4.99-3.66,9.13-8.45,9.88C24.05,39.96,23.53,40,23,40c-3.03,0-5.74-1.35-7.58-3.48	c-1.08-1.26-1.86-2.79-2.22-4.49C13.07,31.38,13,30.7,13,30c0-5.52,4.48-10,10-10c1.75,0,3.4,0.45,4.84,1.25	C30.92,22.95,33,26.23,33,30z"/><path fill="#4ccff1" d="M48.02,32.01c0,0.68-0.08,1.35-0.22,1.99c-0.08,0.35-0.18,0.69-0.3,1.03	c-0.44,1.24-1.14,2.35-2.04,3.27c-1.64,1.68-3.92,2.72-6.45,2.72c-0.19,0-0.37-0.01-0.55-0.02c-3.68-0.22-6.76-2.65-7.94-5.97	C30.18,34.09,30,33.07,30,32.01c0-4.98,4.03-9.01,9.01-9.01c3.93,0,7.27,2.52,8.5,6.03C47.84,29.96,48.02,30.97,48.02,32.01z"/><path fill="#4ccff1" d="M25,43c0,6.08-4.92,11-11,11c-4.33,0-8.07-2.5-9.87-6.13C3.41,46.4,3,44.75,3,43	c0-5.81,4.5-10.56,10.2-10.97C13.47,32.01,13.73,32,14,32c1.46,0,2.86,0.29,4.14,0.81c3.08,1.24,5.46,3.85,6.41,7.07	C24.84,40.87,25,41.91,25,43z"/><path fill="#4ccff1" d="M58,44c0,5.51-4.46,9.98-9.96,10H48c-3.7,0-6.93-2.01-8.66-5C38.49,47.53,38,45.82,38,44	c0-1.05,0.16-2.05,0.46-3c0.77-2.47,2.48-4.52,4.7-5.75c0.14-0.08,0.28-0.15,0.43-0.22c1.27-0.63,2.7-1,4.21-1.03H48	C53.52,34,58,38.48,58,44z"/><ellipse cx="31" cy="61" opacity=".3" rx="22" ry="3"/><rect width="33.54" height="18.97" x="14.5" y="35.03" fill="#4ccff1"/><path fill="#ffce29" d="M22.512,9.768l1.122,0.613c0.489,0.267,0.489,0.969,0,1.237l-1.122,0.613	c-0.118,0.065-0.215,0.162-0.28,0.28l-0.613,1.122c-0.267,0.489-0.969,0.489-1.237,0l-0.613-1.122	c-0.065-0.118-0.162-0.215-0.28-0.28l-1.122-0.613c-0.489-0.267-0.489-0.969,0-1.237l1.122-0.613c0.118-0.065,0.215-0.162,0.28-0.28	l0.613-1.122c0.267-0.489,0.969-0.489,1.237,0l0.613,1.122C22.296,9.606,22.394,9.704,22.512,9.768z"/><path fill="#ffce29" d="M10.512,18.768l1.122,0.613c0.489,0.267,0.489,0.969,0,1.237l-1.122,0.613	c-0.118,0.065-0.215,0.162-0.28,0.28l-0.613,1.122c-0.267,0.489-0.969,0.489-1.237,0l-0.613-1.122	c-0.065-0.118-0.162-0.215-0.28-0.28l-1.122-0.613c-0.489-0.267-0.489-0.969,0-1.237l1.122-0.613c0.118-0.065,0.215-0.162,0.28-0.28	l0.613-1.122c0.267-0.489,0.969-0.489,1.237,0l0.613,1.122C10.296,18.606,10.394,18.704,10.512,18.768z"/><path d="M53.02,35.36C55.99,37.1,58,40.31,58,44c0,5.51-4.46,9.98-9.96,10H36c0-2.76,2.24-5,5-5h7	c2.77-0.01,5-2.25,5-5c0-1.79-0.93-3.41-2.5-4.32c-1.5-0.88-2.45-2.48-2.48-4.22c-0.03-1.75,0.85-3.38,2.32-4.32	c1.16-0.74,2.18-1.66,3.03-2.73c1.56-1.98,4.3-2.47,6.41-1.24c-0.08,0.2-0.16,0.4-0.25,0.59C58.17,30.91,55.88,33.55,53.02,35.36z" opacity=".15"/><path fill="#fff" d="M45.81,4.11c0.11,2.43-1.58,4.63-4.03,5.11c-5.54,1.08-9.76,6.09-9.82,11.66	c-0.02,1.68-0.87,3.23-2.28,4.15c-1.4,0.91-3.17,1.06-4.71,0.39C24.33,25.14,23.67,25,23,25c-2.76,0-5,2.24-5,5	c0,0.35,0.03,0.71,0.1,1.05c0.28,1.4-0.05,2.87-0.92,4.01s-2.19,1.85-3.62,1.96C10.44,37.24,8,39.87,8,43	c0,2.37-1.65,4.36-3.87,4.87C3.41,46.4,3,44.75,3,43c0-5.81,4.5-10.56,10.2-10.97C13.07,31.38,13,30.7,13,30c0-5.52,4.48-10,10-10	c1.41,0,2.74,0.3,3.96,0.83c0.08-8.01,5.97-14.98,13.86-16.52C42.53,3.97,44.21,3.92,45.81,4.11z" opacity=".3"/><path fill="#fff" d="M18,31.5c-0.829,0-1.5-0.671-1.5-1.5c0-3.584,2.916-6.5,6.5-6.5c0.829,0,1.5,0.671,1.5,1.5	s-0.671,1.5-1.5,1.5c-1.93,0-3.5,1.57-3.5,3.5C19.5,30.829,18.829,31.5,18,31.5z"/><path fill="#fff" d="M33.963,16c-0.285,0-0.574-0.081-0.829-0.251c-0.689-0.458-0.877-1.39-0.418-2.08	c1.034-1.555,2.403-2.919,3.959-3.945c0.691-0.457,1.622-0.265,2.078,0.427c0.456,0.691,0.265,1.622-0.427,2.078	c-1.223,0.806-2.298,1.878-3.111,3.101C34.925,15.765,34.449,16,33.963,16z"/></svg>