<svg xmlns="http://www.w3.org/2000/svg" xmlns:xlink="http://www.w3.org/1999/xlink" viewBox="0,0,256,256" width="48px" height="48px" fill-rule="nonzero"><defs><linearGradient x1="5.707" y1="7.707" x2="23.762" y2="25.762" gradientUnits="userSpaceOnUse" id="color-1"><stop offset="0" stop-color="#fed100"></stop><stop offset="1" stop-color="#e36001"></stop></linearGradient><linearGradient x1="22.313" y1="16.079" x2="26.618" y2="41.448" gradientUnits="userSpaceOnUse" id="color-2"><stop offset="0" stop-color="#fcfcfc"></stop><stop offset="1" stop-color="#c3c9cd"></stop></linearGradient></defs><g fill-opacity="0" fill="#000000" fill-rule="nonzero" stroke="none" stroke-width="1" stroke-linecap="butt" stroke-linejoin="miter" stroke-miterlimit="10" stroke-dasharray="" stroke-dashoffset="0" font-family="none" font-weight="none" font-size="none" text-anchor="none" style="mix-blend-mode: normal"><path d="M0,256v-256h256v256z" id="bgRectangle"></path></g><g fill="none" fill-rule="nonzero" stroke="none" stroke-width="1" stroke-linecap="butt" stroke-linejoin="miter" stroke-miterlimit="10" stroke-dasharray="" stroke-dashoffset="0" font-family="none" font-weight="none" font-size="none" text-anchor="none" style="mix-blend-mode: normal"><g transform="scale(5.33333,5.33333)"><path d="M16,7c-6.075,0 -11,4.925 -11,11c0,6.075 4.925,11 11,11c6.075,0 11,-4.925 11,-11c0,-6.075 -4.925,-11 -11,-11z" fill="url(#color-1)"></path><path d="M35,21c-0.331,0 -0.657,0.018 -0.98,0.049c-2.279,-3.059 -5.912,-5.049 -10.02,-5.049c-5.713,0 -10.52,3.837 -12.012,9.071c-3.939,0.498 -6.988,3.854 -6.988,7.929c0,4.418 3.582,8 8,8c1.818,0 20.107,0 22,0c5.523,0 10,-4.477 10,-10c0,-5.523 -4.477,-10 -10,-10z" fill="url(#color-2)"></path></g></g></svg>